HIERARCHY
ROOT Hips
{
	OFFSET 0.000000 83.214638 0.000000
	CHANNELS 6 Xposition Yposition Zposition Xrotation Yrotation Zrotation
	JOINT Pelvis
	{
		OFFSET 0.000000 0.000000 0.000000
		CHANNELS 3 Xrotation Yrotation Zrotation
		JOINT LeftUpLeg
		{
			OFFSET 8.479700 -4.795502 -0.379100
			CHANNELS 3 Xrotation Yrotation Zrotation
			JOINT LeftLeg
			{
				OFFSET 0.024144 -32.555107 0.112900
				CHANNELS 3 Xrotation Yrotation Zrotation
				JOINT LeftFoot
				{
					OFFSET -0.024144 -32.638630 -3.012600
					CHANNELS 3 Xrotation Yrotation Zrotation
					JOINT LeftToeBase
					{
						OFFSET 0.970200 -13.225400 11.864200
						CHANNELS 3 Xrotation Yrotation Zrotation
						End Site
						{
							OFFSET 0.000000 12.319262 0.000000
						}
					}
					JOINT LFootTongue
					{
						OFFSET 1.142400 -1.059800 6.665200
						CHANNELS 3 Xrotation Yrotation Zrotation
						End Site
						{
							OFFSET 0.000000 12.319262 0.000000
						}
					}
				}
				JOINT LeftPantLeg
				{
					OFFSET 0.918482 -16.533964 -2.284700
					CHANNELS 3 Xrotation Yrotation Zrotation
					End Site
					{
						OFFSET 0.350399 24.744368 0.000000
					}
				}
			}
		}
		JOINT RightUpLeg
		{
			OFFSET -8.479700 -4.795502 -0.379100
			CHANNELS 3 Xrotation Yrotation Zrotation
			JOINT RightLeg
			{
				OFFSET -0.023144 -32.555092 0.112900
				CHANNELS 3 Xrotation Yrotation Zrotation
				JOINT RightFoot
				{
					OFFSET 0.023144 -32.638641 -3.012700
					CHANNELS 3 Xrotation Yrotation Zrotation
					JOINT RightToeBase
					{
						OFFSET -0.970200 -13.225400 11.864200
						CHANNELS 3 Xrotation Yrotation Zrotation
						End Site
						{
							OFFSET 0.000000 12.319244 0.000000
						}
					}
					JOINT RFootTongue
					{
						OFFSET -1.142200 -1.059800 6.665200
						CHANNELS 3 Xrotation Yrotation Zrotation
						End Site
						{
							OFFSET 0.000000 12.319243 0.000000
						}
					}
				}
				JOINT RightPantLeg
				{
					OFFSET -0.919482 -16.533978 -2.284800
					CHANNELS 3 Xrotation Yrotation Zrotation
					End Site
					{
						OFFSET -0.350400 24.744419 0.000000
					}
				}
			}
		}
	}
	JOINT Spine
	{
		OFFSET 0.000000 7.722000 1.166200
		CHANNELS 3 Xrotation Yrotation Zrotation
		JOINT Spine1
		{
			OFFSET 0.000000 12.024101 0.248800
			CHANNELS 3 Xrotation Yrotation Zrotation
			JOINT Spine2
			{
				OFFSET 0.000000 11.502998 -0.491200
				CHANNELS 3 Xrotation Yrotation Zrotation
				JOINT Neck
				{
					OFFSET 0.000000 18.430702 -3.123100
					CHANNELS 3 Xrotation Yrotation Zrotation
					JOINT Head
					{
						OFFSET 0.000000 9.051102 1.034000
						CHANNELS 3 Xrotation Yrotation Zrotation
						JOINT HairB
						{
							OFFSET 0.208400 24.786102 24.822300
							CHANNELS 3 Xrotation Yrotation Zrotation
							End Site
							{
								OFFSET 0.000000 32.263779 0.000000
							}
						}
						JOINT HairA
						{
							OFFSET -7.081100 24.428299 23.196600
							CHANNELS 3 Xrotation Yrotation Zrotation
							End Site
							{
								OFFSET 0.000000 32.263779 0.000000
							}
						}
						JOINT Hat
						{
							OFFSET 16.728800 15.048294 -15.439601
							CHANNELS 3 Xrotation Yrotation Zrotation
							End Site
							{
								OFFSET 0.000000 32.263779 0.000000
							}
						}
					}
				}
				JOINT LeftShoulder
				{
					OFFSET 6.197800 13.665199 -4.064700
					CHANNELS 3 Xrotation Yrotation Zrotation
					JOINT LeftArm
					{
						OFFSET 7.778100 -0.187103 -1.709300
						CHANNELS 3 Xrotation Yrotation Zrotation
						JOINT LeftForeArm
						{
							OFFSET 22.049376 0.000000 0.000000
							CHANNELS 3 Xrotation Yrotation Zrotation
							JOINT LeftHand
							{
								OFFSET 23.009392 0.000000 0.000000
								CHANNELS 3 Xrotation Yrotation Zrotation
								JOINT LeftHandThumb1
								{
									OFFSET 3.507191 -2.063065 3.133727
									CHANNELS 3 Xrotation Yrotation Zrotation
									JOINT LeftHandThumb2
									{
										OFFSET 3.101337 -1.790558 1.790558
										CHANNELS 3 Xrotation Yrotation Zrotation
										JOINT LeftHandThumb3
										{
											OFFSET 3.058640 -1.765907 1.765906
											CHANNELS 3 Xrotation Yrotation Zrotation
											End Site
											{
												OFFSET -0.415260 3.926476 -0.049563
											}
										}
									}
								}
								JOINT LeftHandIndex1
								{
									OFFSET 11.334419 -0.901459 3.706815
									CHANNELS 3 Xrotation Yrotation Zrotation
									JOINT LeftHandIndex2
									{
										OFFSET 3.283112 0.000000 0.000000
										CHANNELS 3 Xrotation Yrotation Zrotation
										JOINT LeftHandIndex3
										{
											OFFSET 3.323853 0.000000 0.000000
											CHANNELS 3 Xrotation Yrotation Zrotation
											End Site
											{
												OFFSET -1.135597 3.097809 0.402452
											}
										}
									}
								}
								JOINT LeftHandMiddle1
								{
									OFFSET 11.335861 0.000000 0.000000
									CHANNELS 3 Xrotation Yrotation Zrotation
									JOINT LeftHandMiddle2
									{
										OFFSET 3.410492 0.000000 0.000000
										CHANNELS 3 Xrotation Yrotation Zrotation
										JOINT LeftHandMiddle3
										{
											OFFSET 3.312172 0.000000 0.000000
											CHANNELS 3 Xrotation Yrotation Zrotation
											End Site
											{
												OFFSET -1.150200 3.080154 0.400270
											}
										}
									}
								}
								JOINT LeftHandRing1
								{
									OFFSET 11.514786 -0.013176 -3.003090
									CHANNELS 3 Xrotation Yrotation Zrotation
									JOINT LeftHandRing2
									{
										OFFSET 3.053307 0.000000 0.000000
										CHANNELS 3 Xrotation Yrotation Zrotation
										JOINT LeftHandRing3
										{
											OFFSET 3.295807 0.000000 0.000000
											CHANNELS 3 Xrotation Yrotation Zrotation
											End Site
											{
												OFFSET -1.281006 3.013344 0.375733
											}
										}
									}
								}
								JOINT LeftHandPinky1
								{
									OFFSET 10.518692 -0.960396 -5.730441
									CHANNELS 3 Xrotation Yrotation Zrotation
									JOINT LeftHandPinky2
									{
										OFFSET 2.861649 0.000000 0.000000
										CHANNELS 3 Xrotation Yrotation Zrotation
										JOINT LeftHandPinky3
										{
											OFFSET 2.863380 0.000000 0.000000
											CHANNELS 3 Xrotation Yrotation Zrotation
											End Site
											{
												OFFSET -0.843597 2.711159 0.369971
											}
										}
									}
								}
							}
							JOINT LSleeve
							{
								OFFSET 6.676277 -0.344902 -1.011730
								CHANNELS 3 Xrotation Yrotation Zrotation
								End Site
								{
									OFFSET 0.000000 14.885353 0.000000
								}
							}
						}
					}
				}
				JOINT RightShoulder
				{
					OFFSET -6.197800 13.665199 -4.064700
					CHANNELS 3 Xrotation Yrotation Zrotation
					JOINT RightArm
					{
						OFFSET -7.778100 -0.187103 -1.709300
						CHANNELS 3 Xrotation Yrotation Zrotation
						JOINT RightForeArm
						{
							OFFSET -22.049376 0.000000 0.000000
							CHANNELS 3 Xrotation Yrotation Zrotation
							JOINT RightHand
							{
								OFFSET -23.009392 0.000000 0.000000
								CHANNELS 3 Xrotation Yrotation Zrotation
								JOINT RightHandThumb1
								{
									OFFSET -3.507191 -2.063065 3.133727
									CHANNELS 3 Xrotation Yrotation Zrotation
									JOINT RightHandThumb2
									{
										OFFSET -3.101337 -1.790558 1.790558
										CHANNELS 3 Xrotation Yrotation Zrotation
										JOINT RightHandThumb3
										{
											OFFSET -3.058640 -1.765907 1.765906
											CHANNELS 3 Xrotation Yrotation Zrotation
											End Site
											{
												OFFSET 0.415260 3.926476 -0.049563
											}
										}
									}
								}
								JOINT RightHandIndex1
								{
									OFFSET -11.334419 -0.901459 3.706815
									CHANNELS 3 Xrotation Yrotation Zrotation
									JOINT RightHandIndex2
									{
										OFFSET -3.283112 0.000000 0.000000
										CHANNELS 3 Xrotation Yrotation Zrotation
										JOINT RightHandIndex3
										{
											OFFSET -3.323853 0.000000 0.000000
											CHANNELS 3 Xrotation Yrotation Zrotation
											End Site
											{
												OFFSET 1.135597 3.097809 0.402452
											}
										}
									}
								}
								JOINT RightHandMiddle1
								{
									OFFSET -11.335861 0.000000 0.000000
									CHANNELS 3 Xrotation Yrotation Zrotation
									JOINT RightHandMiddle2
									{
										OFFSET -3.410492 0.000000 0.000000
										CHANNELS 3 Xrotation Yrotation Zrotation
										JOINT RightHandMiddle3
										{
											OFFSET -3.312172 0.000000 0.000000
											CHANNELS 3 Xrotation Yrotation Zrotation
											End Site
											{
												OFFSET 1.150200 3.080154 0.400270
											}
										}
									}
								}
								JOINT RightHandRing1
								{
									OFFSET -11.514786 -0.013176 -3.003090
									CHANNELS 3 Xrotation Yrotation Zrotation
									JOINT RightHandRing2
									{
										OFFSET -3.053307 0.000000 0.000000
										CHANNELS 3 Xrotation Yrotation Zrotation
										JOINT RightHandRing3
										{
											OFFSET -3.295807 0.000000 0.000000
											CHANNELS 3 Xrotation Yrotation Zrotation
											End Site
											{
												OFFSET 1.281006 3.013344 0.375733
											}
										}
									}
								}
								JOINT RightHandPinky1
								{
									OFFSET -10.518692 -0.960396 -5.730441
									CHANNELS 3 Xrotation Yrotation Zrotation
									JOINT RightHandPinky2
									{
										OFFSET -2.861649 0.000000 0.000000
										CHANNELS 3 Xrotation Yrotation Zrotation
										JOINT RightHandPinky3
										{
											OFFSET -2.863380 0.000000 0.000000
											CHANNELS 3 Xrotation Yrotation Zrotation
											End Site
											{
												OFFSET 0.843597 2.711159 0.369971
											}
										}
									}
								}
							}
							JOINT RSleeve
							{
								OFFSET -6.676277 -0.344902 -1.011730
								CHANNELS 3 Xrotation Yrotation Zrotation
								End Site
								{
									OFFSET 0.000000 14.885353 0.000000
								}
							}
						}
					}
				}
				JOINT Backpack
				{
					OFFSET 0.000000 -2.471497 36.677502
					CHANNELS 3 Xrotation Yrotation Zrotation
					End Site
					{
						OFFSET 0.000000 20.427315 0.000000
					}
				}
				JOINT Hood
				{
					OFFSET 0.000000 18.754097 -10.431000
					CHANNELS 3 Xrotation Yrotation Zrotation
					JOINT Hood1
					{
						OFFSET 0.000000 -5.011002 -7.685901
						CHANNELS 3 Xrotation Yrotation Zrotation
						End Site
						{
							OFFSET 0.000000 9.175140 0.000000
						}
					}
				}
				JOINT LHoodieString
				{
					OFFSET 5.250500 16.397697 3.089900
					CHANNELS 3 Xrotation Yrotation Zrotation
					JOINT LHoodieString1
					{
						OFFSET 0.257700 -6.364304 3.694600
						CHANNELS 3 Xrotation Yrotation Zrotation
						JOINT LHoodieString2
						{
							OFFSET 0.000000 -9.643799 2.679100
							CHANNELS 3 Xrotation Yrotation Zrotation
							End Site
							{
								OFFSET 0.000000 10.009018 0.000000
							}
						}
					}
				}
				JOINT RHoodieString
				{
					OFFSET -5.250500 16.397697 3.089900
					CHANNELS 3 Xrotation Yrotation Zrotation
					JOINT RHoodieString1
					{
						OFFSET -0.257700 -6.364304 3.694600
						CHANNELS 3 Xrotation Yrotation Zrotation
						JOINT RHoodieString2
						{
							OFFSET 0.000000 -9.643799 2.679100
							CHANNELS 3 Xrotation Yrotation Zrotation
							End Site
							{
								OFFSET 0.000000 10.009018 0.000000
							}
						}
					}
				}
			}
			JOINT LBackpack_Strap
			{
				OFFSET 15.223200 -7.719803 -6.610900
				CHANNELS 3 Xrotation Yrotation Zrotation
				End Site
				{
					OFFSET 0.000000 16.040596 0.000000
				}
			}
			JOINT RBackpack_Strap
			{
				OFFSET -15.223000 -7.719803 -6.610900
				CHANNELS 3 Xrotation Yrotation Zrotation
				End Site
				{
					OFFSET 0.000000 16.040596 0.000000
				}
			}
		}
	}
	JOINT BoyFacialAnim_Joint
	{
		OFFSET 1.000000 -82.208099 -1.550900
		CHANNELS 3 Xrotation Yrotation Zrotation
		End Site
		{
			OFFSET 0.000000 30.012791 0.000000
		}
	}
}
MOTION
Frames: 4
Frame Time: 0.033333
6.179933 81.069489 22.023758 -4.946064 -21.310479 -2.853805 0.000000 -0.000001 -0.000000 -18.021700 4.113300 2.000905 27.456423 -8.383415 -1.410874 -6.092335 17.908887 -3.291414 0.000000 0.000000 0.000000 0.000000 0.000000 0.000000 0.000000 -0.000000 -0.000000 -51.248006 -1.560589 -11.466708 81.578297 2.225971 -0.645891 -3.654596 2.894021 9.403113 -0.000001 0.000000 0.000001 -0.000001 0.000000 0.000001 -0.000001 -0.000001 -0.000001 10.882035 -0.079705 1.453698 5.782049 1.461950 0.836802 -5.831797 1.460091 1.654159 12.359216 7.598107 -7.747907 -6.261914 9.311067 -2.195500 0.000001 -0.000000 0.000000 0.000001 -0.000000 0.000000 0.000001 -0.000000 0.000000 -0.736150 -20.725511 2.305524 -17.669363 -0.222549 -50.522588 47.913941 -49.895293 35.299838 -3.438842 -3.534237 18.696950 19.068520 -1.824295 9.672315 4.191918 17.860086 -9.258423 0.000000 -0.000001 -0.000000 1.964563 2.115668 -21.234782 -0.209984 -1.317526 -30.538964 -0.000000 0.000000 -0.000002 1.238554 2.959553 -36.493533 -0.334325 -2.400670 -45.070120 0.000002 0.000005 0.000003 1.941556 6.038063 -47.692677 -1.728085 -2.004251 -52.674859 -0.000001 -0.000002 -0.000001 0.442083 4.336610 -61.825049 -2.045335 -1.968552 -56.393764 0.000000 -0.000001 -0.000002 0.000001 0.000003 0.000000 -1.374792 21.791736 -6.689789 -15.597919 -44.749456 44.180727 -10.126146 44.838071 8.008594 0.003036 20.186226 -2.960915 55.149536 18.649533 -29.698274 -0.442529 -14.180540 7.313148 -0.000002 -0.000002 0.000001 5.673395 7.585010 36.844151 1.050459 3.824482 68.900244 0.000003 -0.000000 -0.000000 -0.125683 1.886096 45.000776 -1.169016 3.204682 68.417670 0.000002 -0.000002 0.000001 -5.311990 1.216628 58.508828 -0.745222 1.667603 48.011261 0.000001 0.000003 0.000001 -7.756782 -9.376453 47.263997 -0.526008 1.541587 45.600539 -0.000000 0.000001 -0.000005 0.000001 -0.000001 0.000001 -0.000000 -0.000001 0.000000 -0.000000 -0.000001 0.000000 -0.000000 -0.000001 0.000000 -0.000000 -0.000001 0.000000 -0.000000 -0.000001 -0.000000 -0.000001 -0.000002 0.000000 -0.000000 -0.000001 0.000000 -0.000000 -0.000001 -0.000000 -0.000001 -0.000002 0.000000 0.000000 0.000001 -0.000000 0.000000 0.000001 -0.000000 0.000000 -0.000001 -0.000000 
6.518528 80.639191 19.902361 -3.031896 -26.804002 -2.523194 0.000000 0.000002 0.000000 -22.436997 7.798479 4.579428 29.075402 -7.927726 -1.406751 -5.389419 18.477668 -3.908090 -0.000000 0.000000 -0.000001 -0.000000 0.000000 -0.000000 -0.000000 0.000001 0.000000 -43.357409 -1.091800 -14.266984 74.536659 1.446972 -2.002923 -4.015397 2.047985 9.663942 -0.000000 -0.000002 0.000001 -0.000000 -0.000002 0.000001 0.000002 -0.000000 0.000002 10.643304 0.630397 1.250556 5.294232 2.653330 0.595426 -6.356637 2.652316 1.599015 12.607933 7.521454 -7.202921 -6.816375 11.025180 -2.574927 -0.000001 0.000000 0.000000 -0.000001 0.000000 0.000000 -0.000001 0.000000 0.000000 -0.787987 -19.231274 2.144984 -16.654670 1.039050 -49.049706 45.813470 -51.540341 34.067122 -2.389581 -3.061197 17.159324 19.024088 -2.468920 9.888333 3.766749 17.336625 -9.145123 -0.000000 -0.000001 -0.000001 1.494765 1.599790 -19.533812 -0.163895 -1.236228 -28.476126 -0.000002 0.000002 -0.000002 1.303027 3.025718 -33.953994 -0.249304 -2.304330 -42.517689 0.000002 -0.000003 0.000003 2.026208 6.057700 -45.010001 -1.611633 -1.920439 -49.987139 0.000001 -0.000001 -0.000002 0.571915 4.323999 -58.675307 -1.893341 -1.878301 -53.238647 0.000002 0.000002 -0.000002 -0.000000 -0.000002 -0.000003 -1.097704 22.397553 -7.719908 -14.294467 -41.596327 45.648890 -13.786778 48.101283 10.962746 0.948612 20.596505 -1.218786 55.149539 18.649534 -29.698281 -0.442529 -14.180538 7.313150 0.000001 0.000004 -0.000000 5.673397 7.585008 36.844147 1.050460 3.824482 68.900244 -0.000001 -0.000001 -0.000002 -0.125689 1.886094 45.000780 -1.169018 3.204688 68.417670 0.000001 0.000001 -0.000000 -5.311996 1.216628 58.508828 -0.745221 1.667604 48.011268 0.000002 -0.000001 0.000004 -7.756785 -9.376454 47.263997 -0.526009 1.541593 45.600539 0.000002 0.000001 -0.000001 -0.000000 0.000001 -0.000004 -0.000000 -0.000002 0.000000 -0.000000 -0.000002 0.000000 -0.000000 -0.000002 0.000000 -0.000000 -0.000002 0.000000 -0.000000 -0.000002 -0.000000 -0.000001 -0.000001 -0.000000 -0.000000 -0.000002 0.000000 -0.000000 -0.000002 -0.000000 -0.000001 -0.000001 -0.000000 0.000001 0.000001 -0.000000 0.000001 0.000001 -0.000000 0.000000 0.000002 0.000000 
6.660169 80.195595 17.646122 -1.430790 -32.149168 -2.264919 0.000000 -0.000001 0.000000 -26.674938 11.250756 8.075050 30.608868 -7.661420 -1.416336 -4.505156 18.864552 -4.831846 -0.000000 0.000001 0.000000 -0.000000 0.000001 0.000000 -0.000000 0.000000 -0.000000 -36.202619 -1.870953 -16.889835 64.613200 1.061405 -3.355747 -3.821532 1.305217 10.368646 0.000003 0.000004 -0.000001 0.000003 0.000004 -0.000001 0.000002 -0.000001 0.000002 10.456511 1.302563 1.007411 4.918627 3.792512 0.261374 -6.772573 3.813054 1.445888 13.450409 7.425831 -6.260510 -8.001528 12.835844 -3.011447 0.000000 -0.000000 0.000000 0.000000 -0.000000 0.000000 0.000000 -0.000000 0.000000 -0.772888 -18.071291 2.199100 -15.269352 2.869571 -47.496128 43.012935 -52.973496 32.015067 -2.295035 -2.656429 15.567883 18.972491 -3.152003 10.141994 3.311852 16.771161 -9.028231 0.000000 0.000001 0.000000 1.027478 1.016699 -17.710570 -0.117582 -1.146895 -26.256919 0.000001 0.000001 0.000002 1.374888 3.110499 -31.222676 -0.161677 -2.197489 -39.771915 0.000001 -0.000003 0.000003 2.125522 6.102921 -42.126336 -1.491982 -1.823069 -47.095998 -0.000002 0.000001 -0.000004 0.721245 4.341560 -55.289295 -1.737784 -1.769323 -49.844736 -0.000001 0.000001 -0.000002 -0.000001 0.000001 0.000002 -1.038148 22.903081 -8.058975 -13.099822 -38.540415 46.400135 -16.891389 50.533267 13.535826 1.541541 22.097605 0.281815 55.149533 18.649529 -29.698277 -0.442530 -14.180542 7.313153 0.000000 -0.000002 -0.000001 5.673394 7.585003 36.844147 1.050458 3.824482 68.900244 -0.000000 -0.000000 0.000004 -0.125689 1.886091 45.000776 -1.169010 3.204684 68.417670 0.000001 0.000001 -0.000000 -5.311995 1.216623 58.508821 -0.745225 1.667604 48.011264 0.000000 -0.000002 0.000004 -7.756788 -9.376456 47.263994 -0.526011 1.541591 45.600539 0.000001 0.000000 -0.000001 -0.000000 -0.000001 -0.000005 -0.000000 0.000000 -0.000000 -0.000000 0.000000 -0.000000 -0.000000 0.000000 -0.000000 -0.000000 0.000000 -0.000000 -0.000000 0.000000 -0.000000 -0.000000 0.000000 -0.000000 -0.000000 0.000000 -0.000000 -0.000000 0.000000 -0.000000 -0.000000 0.000000 -0.000000 0.000000 -0.000000 -0.000000 0.000000 -0.000000 -0.000000 0.000000 -0.000001 0.000000 
6.641536 79.683456 15.321186 0.099076 -37.407771 -1.835388 -0.000000 0.000001 0.000000 -30.953338 14.394909 12.214408 32.148812 -7.515958 -1.436435 -3.527966 19.151697 -5.968368 -0.000000 -0.000000 -0.000001 -0.000000 -0.000000 -0.000000 -0.000000 0.000003 -0.000000 -30.209322 -2.888339 -18.740443 53.481150 1.142076 -4.560668 -3.003976 0.749873 12.609647 -0.000000 0.000003 -0.000000 -0.000000 0.000003 -0.000000 -0.000002 0.000002 -0.000003 10.286518 1.901318 0.695793 4.587424 4.808560 -0.187817 -7.145469 4.877642 1.158669 14.499416 7.521467 -5.255757 -9.125403 14.742265 -3.423238 0.000000 0.000000 0.000000 0.000000 0.000000 0.000000 0.000000 0.000000 0.000000 -0.701959 -17.057219 2.489010 -13.573262 5.301620 -46.138744 39.602185 -54.242139 29.291270 -3.074682 -2.254556 13.833468 18.916185 -3.859801 10.426015 2.836131 16.176202 -8.913299 -0.000001 -0.000000 -0.000001 0.580984 0.375845 -15.804882 -0.072779 -1.051413 -23.928707 -0.000001 -0.000004 -0.000002 1.449947 3.213518 -28.357713 -0.074090 -2.082023 -36.891399 -0.000001 -0.000002 -0.000000 2.235661 6.178157 -39.103482 -1.373159 -1.713294 -44.062995 -0.000001 0.000002 -0.000000 0.885055 4.395788 -51.739721 -1.584497 -1.642437 -46.284517 -0.000000 0.000002 0.000002 -0.000002 -0.000000 0.000000 -1.226193 23.446789 -7.716990 -11.953616 -35.843747 46.818607 -18.398202 53.116086 14.921221 2.588374 23.643461 0.991941 55.149543 18.649529 -29.698281 -0.442530 -14.180541 7.313150 0.000000 0.000005 -0.000000 5.673399 7.585008 36.844151 1.050455 3.824479 68.900250 0.000000 -0.000001 -0.000000 -0.125686 1.886094 45.000776 -1.169017 3.204683 68.417670 0.000000 -0.000002 0.000005 -5.311990 1.216625 58.508828 -0.745226 1.667605 48.011261 -0.000000 0.000003 -0.000001 -7.756786 -9.376460 47.263994 -0.526008 1.541593 45.600539 0.000000 0.000001 0.000000 0.000003 -0.000002 -0.000003 0.000000 -0.000001 -0.000000 0.000000 -0.000001 -0.000000 0.000000 -0.000001 -0.000000 0.000000 -0.000001 -0.000000 0.000000 -0.000001 -0.000000 -0.000000 -0.000001 -0.000000 0.000000 -0.000001 -0.000000 0.000000 -0.000001 -0.000000 -0.000000 -0.000001 -0.000000 -0.000000 0.000001 0.000000 -0.000000 0.000001 0.000000 -0.000000 0.000001 0.000000 
